<?xml version="1.0" standalone="no"?><!DOCTYPE svg PUBLIC "-//W3C//DTD SVG 1.1//EN" "http://www.w3.org/Graphics/SVG/1.1/DTD/svg11.dtd"><svg class="icon" style="" viewBox="0 0 1024 1024" version="1.1" xmlns="http://www.w3.org/2000/svg" p-id="1564" xmlns:xlink="http://www.w3.org/1999/xlink" width="128" height="128"><defs><style type="text/css"><![CDATA[

]]></style></defs><path d="M752.80384 487.54688l-2.17088-1.536-322.80576-225.95584-3.1744-2.21184c-4.62848-2.78528-9.97376-4.48512-15.7696-4.48512-16.95744 0-30.72 13.76256-30.72 30.72l0 456.33536c0 16.95744 13.76256 30.72 30.72 30.72 4.62848 0 8.97024-1.10592 12.9024-2.92864l9.0112-6.30784 319.83616-223.88736 2.1504-1.51552c7.45472-5.61152 12.34944-14.4384 12.34944-24.4736S760.23808 493.13792 752.80384 487.54688z" p-id="1565" fill="#2c2c2c"></path><path d="M512 0c-282.76736 0-512 229.23264-512 512s229.23264 512 512 512 512-229.23264 512-512S794.78784 0 512 0zM512 983.04c-259.72736 0-471.04-211.31264-471.04-471.04s211.31264-471.04 471.04-471.04 471.04 211.31264 471.04 471.04S771.74784 983.04 512 983.04z" p-id="1566" fill="#2c2c2c"></path></svg>